# xmcd
#
# Track frame offsets: 
#        150
#        20190
#        41135
#        59475
#        76005
#        95631
#        113442
#        134246
#        148952
#        171449
#        186963
#
# Disc length: 2830 seconds
#
# Revision: 2
# Processed by: cddbd v1.5.2PL0 Copyright (c) Steve Scherf et al.
# Submitted via: ExactAudioCopy v0.99pb5
#
DISCID=a70b0c0b
DTITLE=Big James - Right Here Right Now
DYEAR=2009
DGENRE=Blues
TTITLE0=Right Here Right Now
TTITLE1=A Mama Like Mine
TTITLE2=Love To See You Smile
TTITLE3=On The Grind
TTITLE4=Expect The Best
TTITLE5=I Love 'Em
TTITLE6=A Little Attention
TTITLE7=The Goose
TTITLE8=Help (Somebody Please)
TTITLE9=Without You In My Life
TTITLE10=Worry
EXTD=
EXTT0=
EXTT1=
EXTT2=
EXTT3=
EXTT4=
EXTT5=
EXTT6=
EXTT7=
EXTT8=
EXTT9=
EXTT10=
PLAYORDER=
